<?xml version="1.0" encoding="UTF-8"?>
<!DOCTYPE svg PUBLIC "-//W3C//DTD SVG 1.1//EN" "http://www.w3.org/Graphics/SVG/1.1/DTD/svg11.dtd">
<!-- Creator: CorelDRAW 2018 (64-Bit) -->
<svg xmlns="http://www.w3.org/2000/svg" xml:space="preserve" width="2.34088in" height="1.61558in" version="1.1" style="shape-rendering:geometricPrecision; text-rendering:geometricPrecision; image-rendering:optimizeQuality; fill-rule:evenodd; clip-rule:evenodd"
viewBox="0 0 327.8 226.23"
 xmlns:xlink="http://www.w3.org/1999/xlink">
 <defs>
  <style type="text/css">
   <![CDATA[
    .fil1 {fill:#223442}
    .fil0 {fill:#223442;fill-rule:nonzero}
    .fil2 {fill:#E00A48;fill-rule:nonzero}
   ]]>
  </style>
 </defs>
 <g id="Layer_x0020_1">
  <metadata id="CorelCorpID_0Corel-Layer"/>
  <g id="_3160657844080">
   <path class="fil0" d="M134.31 107l39.32 68.1 -18.08 31.15 -57.26 -99.18 36.02 -0.08zm19.66 34.05m10.62 49.63m-37.67 -34.01m-10.62 -49.63"/>
   <path class="fil1" d="M130.55 13.71l23.75 41.14c6.26,-9.36 14.53,-17.15 24.36,-22.83 9,-5.19 19.06,-8.83 29.03,-11.67 6.97,-1.99 14.06,-3.6 21.21,-4.83 -27.7,-18.73 -64.77,-21.26 -95.68,-3.42 -0.91,0.52 -1.8,1.06 -2.68,1.61z"/>
   <path class="fil1" d="M260.74 174.18c-9.83,5.67 -20.71,8.93 -31.95,9.68l23.76 41.15c0.92,-0.49 1.83,-0.99 2.73,-1.52 30.9,-17.84 47.25,-51.21 44.88,-84.56 -4.65,5.57 -9.58,10.91 -14.79,15.95 -7.44,7.21 -15.63,14.11 -24.63,19.3z"/>
   <g>
    <path class="fil2" d="M45.95 207.14l89.86 -17.67 -14.81 -25.66 -75.05 43.33zm44.93 -8.84m37.53 -21.67m-44.94 8.84"/>
    <path class="fil2" d="M-0 226.23l102.97 -93.66 14.81 25.66 -117.78 68zm51.48 -46.82m58.9 -34.01m-51.5 46.83"/>
   </g>
   <path class="fil1" d="M159.77 137.7c13.21,22.89 37.33,38.17 63.95,38.61 12.29,0.2 24.29,-2.85 34.95,-8.99 8.23,-4.75 15.72,-11.07 22.53,-17.66 8.21,-7.95 15.68,-16.69 22.34,-25.98 13.85,-19.33 31.26,-52 21.34,-76.07 -0.58,-1.4 -1.24,-2.76 -2,-4.07 -0.76,-1.31 -1.6,-2.57 -2.52,-3.77 -15.89,-20.63 -52.88,-21.88 -76.55,-19.55 -11.37,1.12 -22.67,3.22 -33.66,6.35 -9.12,2.6 -18.33,5.93 -26.56,10.68 -10.66,6.15 -19.3,15.03 -25.27,25.78 -12.92,23.27 -11.74,51.79 1.47,74.68zm156.08 -90.11c12.4,21.47 -7.66,55.45 -20.5,72.84 -6.18,8.37 -13.02,16.29 -20.5,23.53 -6.17,5.98 -12.94,11.76 -20.4,16.07 -9.44,5.45 -20.07,8.14 -30.96,7.95 -23.62,-0.42 -44.99,-14.02 -56.7,-34.32 -11.72,-20.3 -12.82,-45.6 -1.37,-66.26 5.28,-9.53 12.93,-17.39 22.37,-22.85 7.46,-4.31 15.85,-7.28 24.11,-9.63 10.01,-2.85 20.28,-4.81 30.63,-5.98 21.48,-2.43 60.93,-2.81 73.33,18.66z"/>
  </g>
 </g>
</svg>
